<?xml version="1.0" encoding="utf-8"?>
<!-- Generator: Adobe Illustrator 25.0.0, SVG Export Plug-In . SVG Version: 6.00 Build 0)  -->
<svg version="1.1" id="Layer_1" xmlns="http://www.w3.org/2000/svg" xmlns:xlink="http://www.w3.org/1999/xlink" x="0px" y="0px"
	 viewBox="0 0 100 100" style="enable-background:new 0 0 100 100;" xml:space="preserve">
<style type="text/css">
	.st0{fill:url(#SVGID_1_);}
	.st1{fill:url(#SVGID_2_);}
	.st2{fill:url(#SVGID_3_);}
</style>
<g>
	<linearGradient id="SVGID_1_" gradientUnits="userSpaceOnUse" x1="-7.3169" y1="57.6513" x2="79.4916" y2="14.7577">
		<stop  offset="0" style="stop-color:#2D3674"/>
		<stop  offset="0.9955" style="stop-color:#148CCC"/>
	</linearGradient>
	<path class="st0" d="M49.8,10.7c2.5-0.1,4.9,0.1,7.3,0.6c6.3,1.2,12,3.8,17.1,7.8c3.1,2.4,5.7,5.2,7.9,8.4c0.2,0.2,0.3,0.5,0.5,0.8
		c0.3,0.4,0.3,0.7,0,1.1c-0.3,0.3-0.5,0.7-0.9,1c-1.8,1.8-3.8,3.4-5.9,4.9c-9.4,7.1-19.3,13.4-29.7,19.1
		c-7.6,4.1-15.3,7.9-23.3,11.2c-2.1,0.8-4.2,1.6-6.3,2.2c-2,0.6-1.7,0.3-2.3-1c-2-4.1-3.2-8.5-3.6-13C9.8,42.3,13,32.3,20.5,23.8
		c6.2-7.1,14.1-11.2,23.4-12.7c1-0.2,2-0.3,2.9-0.3C47.8,10.7,48.8,10.7,49.8,10.7z"/>
	<linearGradient id="SVGID_2_" gradientUnits="userSpaceOnUse" x1="7.4724" y1="87.5821" x2="94.2809" y2="44.6885">
		<stop  offset="0" style="stop-color:#2D3674"/>
		<stop  offset="0.9955" style="stop-color:#148CCC"/>
	</linearGradient>
	<path class="st1" d="M5.1,68.7c-0.1,0.2-0.2,0.4-0.3,0.6C4.4,70.2,4,71.1,3.6,72c-0.1,0.3-0.1,0.7-0.2,1.1C3.4,74.2,4,75,5,75.5
		c0.8,0.4,1.6,0.6,2.5,0.6c2.8,0.2,5.5-0.3,8.2-1c5.5-1.4,10.8-3.4,16-5.6c8.5-3.6,16.6-7.9,24.6-12.5c7.2-4.2,14.2-8.8,20.9-13.9
		c4.2-3.2,8.3-6.6,11.9-10.4c1.5-1.6,2.9-3.2,4-5c0.6-1,1.2-2.1,1.4-3.3c0.3-1.6-0.3-2.8-1.8-3.3c-0.8-0.3-1.6-0.4-2.4-0.5
		c-0.7-0.1-1.4,0-2.1-0.1c0.6-0.1,1.3-0.2,1.9-0.3c1.7-0.2,3.3-0.4,5,0c0.7,0.1,1.4,0.3,2.1,0.6c1.4,0.7,2,2,1.8,3.5
		c-0.2,1.3-0.7,2.4-1.3,3.5c-1.2,2-2.6,3.9-4.2,5.6c-1.7,1.8-3.5,3.5-5.2,5.2c-0.5,0.4-0.6,0.8-0.4,1.4c1,3.7,1.4,7.5,1.3,11.3
		c-0.2,5.6-1.5,11-4,16c-5.8,11.4-15,18.5-27.6,21.2c-3.3,0.7-6.7,0.9-10,0.7c-8.6-0.6-16.3-3.6-22.9-9.1c-0.9-0.7-1.7-1.5-2.5-2.3
		c-0.4-0.4-0.7-0.4-1.2-0.3c-2.7,0.9-5.5,1.7-8.3,2.2C11,80,9.3,80.3,7.6,80.4c-1.1,0.1-2.3-0.2-3.5-0.3c-0.3,0-0.6-0.2-0.9-0.3
		c-1.9-0.7-2.7-2.2-2.3-4.2c0.2-0.7,0.4-1.5,0.7-2.1c0.8-1.7,1.9-3.2,3.1-4.7C4.9,68.8,5,68.7,5.1,68.7C5.1,68.7,5.1,68.7,5.1,68.7z
		"/>
	<linearGradient id="SVGID_3_" gradientUnits="userSpaceOnUse" x1="0.4996" y1="73.4705" x2="87.3081" y2="30.5768">
		<stop  offset="0" style="stop-color:#2D3674"/>
		<stop  offset="0.9955" style="stop-color:#148CCC"/>
	</linearGradient>
	<path class="st2" d="M84.9,22.2c1.7-0.4,3.4-0.6,5.2-0.1c1.5,0.4,2.1,1.5,1.7,2.9c-0.3,0.9-0.6,1.8-1.2,2.5
		c-0.9,1.3-1.8,2.5-2.9,3.6c-3.1,3.4-6.6,6.3-10.2,9.1C69.4,46.5,60.8,52,51.9,57.1c-7.3,4.1-14.7,7.9-22.4,11.2
		c-4.6,1.9-9.2,3.7-14,4.9c-2.1,0.5-4.3,1-6.5,0.8c-0.7,0-1.4-0.2-2-0.4c-1.1-0.4-1.6-1.3-1.4-2.4c0.1-0.5,0.2-1.1,0.5-1.6
		c0.6-1.1,1.3-2,2-3.1c0-0.1,0.1-0.1,0.3-0.1c-0.1,0.2-0.2,0.4-0.3,0.7c-0.2,0.5-0.4,0.9-0.5,1.4c-0.2,1,0.2,1.8,1.2,2
		c0.8,0.2,1.7,0.4,2.5,0.3c1.8-0.1,3.7-0.5,5.4-0.9c4.5-1.2,8.8-2.9,13-4.7c10.4-4.5,20.3-9.9,30-15.9c5.2-3.2,10.3-6.7,15.2-10.4
		c3.5-2.6,6.8-5.4,9.8-8.6c1.2-1.3,2.4-2.6,3.2-4.2c0.2-0.5,0.4-1,0.6-1.5c0.3-1.1-0.2-1.9-1.2-2.3c-0.5-0.2-1.1-0.2-1.7-0.3
		C85.3,22.2,85.1,22.2,84.9,22.2z"/>
</g>
</svg>
