<?xml version="1.0" encoding="utf-8"?>
<!-- Generator: Adobe Illustrator 25.0.0, SVG Export Plug-In . SVG Version: 6.00 Build 0)  -->
<svg version="1.1" id="Layer_1" xmlns="http://www.w3.org/2000/svg" xmlns:xlink="http://www.w3.org/1999/xlink" x="0px" y="0px"
	 viewBox="0 0 101 101" style="enable-background:new 0 0 101 101;" xml:space="preserve">
<style type="text/css">
	.st0{fill:#293777;}
</style>
<g>
	<path class="st0" d="M95.3,43.5c-0.3,1.8-0.5,3.7-0.9,5.5c-2.3,9.5-7.6,17-15.9,22.2c-7.3,4.6-15.3,6.2-23.8,5
		c-4.4-0.6-8.6-2.1-12.5-4.3c-0.4-0.2-0.8-0.5-1.4-0.8c-0.2,0.2-0.3,0.5-0.5,0.8c-6.9,6.9-13.9,13.9-20.8,20.8
		c-2.4,2.4-5.3,3.2-8.6,2.1c-4.8-1.6-6.7-8-3.6-12c0.4-0.5,0.9-1,1.3-1.5c6.8-6.8,13.7-13.7,20.5-20.5c0.2-0.2,0.5-0.4,0.7-0.7
		c-0.2-0.3-0.3-0.5-0.4-0.8c-3.6-6-5.2-12.4-5-19.3c0.3-8.4,3.3-15.8,8.9-22.2C38.9,11.4,46,7.6,54.4,6.2c1-0.2,2.1-0.3,3.1-0.4
		c1.6,0,3.1,0,4.7,0c0.2,0,0.4,0.1,0.6,0.1c5.7,0.4,10.9,2.2,15.7,5.2c8.3,5.2,13.6,12.7,15.9,22.2c0.4,1.8,0.6,3.7,0.9,5.5
		C95.3,40.4,95.3,41.9,95.3,43.5z M59.8,11c-16.6,0-30.1,13.6-30.2,30.1c0,16.6,13.5,30.1,30.1,30.2C76.4,71.4,90,57.7,90,41.1
		C90,24.5,76.4,11,59.8,11z M25.5,71.9c-0.1,0.1-0.3,0.2-0.4,0.4C20.7,76.6,16.3,81,12,85.3c-0.2,0.2-0.3,0.3-0.5,0.5
		c-1.1,1.5-0.4,3.5,1.3,4c1.2,0.4,2.1-0.1,2.9-0.9c4.3-4.4,8.7-8.7,13-13c0.2-0.2,0.3-0.3,0.4-0.4C27.9,74.3,26.7,73.1,25.5,71.9z
		 M36.5,68c-1.2-1.2-2.4-2.4-3.5-3.5c-1.1,1.1-2.4,2.4-3.6,3.5c1.2,1.2,2.4,2.4,3.5,3.5C34.1,70.4,35.4,69.2,36.5,68z"/>
	<path class="st0" d="M84.8,41.1c0,13.7-11.2,24.9-24.9,24.9c-13.7,0-24.9-11.2-24.9-24.9c0-13.7,11.2-24.9,24.9-24.9
		C73.5,16.2,84.7,27.4,84.8,41.1z M79.5,41.1c0-10.8-8.9-19.7-19.7-19.7c-10.8,0-19.6,8.8-19.6,19.6c0,10.8,8.8,19.7,19.7,19.7
		C70.7,60.8,79.5,51.9,79.5,41.1z"/>
	<path class="st0" d="M52.1,34.5c-0.2-3,2-6.3,5-7.3c4.6-1.6,9.1,0.8,10.4,5.5c0.7,2.7,0,5.2-1.9,7.3c-0.5,0.5-1,1.1-1.5,1.6
		c-1.4,1.6-1.4,1.6-1.8,3.4c-1.7,0-3.4,0-5.1,0c0-1.2,0-2.3,0-3.4c0-0.2,0.3-0.5,0.5-0.7c1.4-1.5,2.8-3.1,4.1-4.6
		c1-1.2,0.8-2.9-0.4-3.8c-1.2-0.9-2.9-0.6-3.7,0.6c-0.3,0.4-0.4,0.9-0.6,1.4C55.5,34.5,53.8,34.5,52.1,34.5z"/>
	<path class="st0" d="M57.3,55.5c0-1.7,0-3.4,0-5.2c1.7,0,3.4,0,5.1,0c0,1.7,0,3.4,0,5.2C60.7,55.5,59,55.5,57.3,55.5z"/>
</g>
</svg>
