<svg xmlns="http://www.w3.org/2000/svg" xmlns:xlink="http://www.w3.org/1999/xlink" version="1.1" id="Layer_1" x="0px" y="0px" viewBox="0 0 101 101" style="enable-background:new 0 0 101 101;" xml:space="preserve">
<style type="text/css">
	.st0{fill:#e0272d;stroke:#e0272d;stroke-width:2;stroke-miterlimit:10;}
	.st1{fill:#e0272d;}
</style>
<g>
	<path class="st0" d="M99,5c-1.6,1.8-25.1,25.1-27.4,27.4c2.3,0.1,13.8-0.1,15.9,0c1.8,0.1,2.5,2.4,1.4,3.7   c-0.2,0.2-0.6,0.5-1.1,0.5c-7.2,0.1-14.4,0.1-21.7,0c-0.7,0-1.6-0.2-1.7-1.8c-0.1-7.6-0.1-14.5,0-21.2c0.1-2.9,4.3-2.4,4.2,0.1   c0.1,4.7,0,10.8,0,15.7L94.4,3.6c0.2-0.2,0.3-0.3,0.5-0.5c0.7-0.8,1.6-1.7,2.6-1.7C99.2,1.5,100.2,3.6,99,5z" fill="#000000"/>
</g>
<g>
	<path class="st0" d="M5,2c1.8,1.6,25.1,25.1,27.4,27.4c0.1-2.3-0.1-13.8,0-15.9c0.1-1.8,2.4-2.5,3.7-1.4c0.2,0.2,0.5,0.6,0.5,1.1   c0.1,7.2,0.1,14.4,0,21.7c0,0.7-0.2,1.6-1.8,1.7c-7.6,0.1-14.5,0.1-21.2,0c-2.9-0.1-2.4-4.3,0.1-4.2c4.7-0.1,10.8,0,15.7,0L3.6,6.6   C3.4,6.4,3.3,6.3,3.1,6.1C2.3,5.4,1.4,4.6,1.4,3.5C1.5,1.8,3.6,0.8,5,2z" fill="#000000"/>
</g>
<g>
	<path class="st0" d="M2,96c1.6-1.8,25.1-25.1,27.4-27.4c-2.3-0.1-13.8,0.1-15.9,0c-1.8-0.1-2.5-2.4-1.4-3.7   c0.2-0.2,0.6-0.5,1.1-0.5c7.2-0.1,14.4-0.1,21.7,0c0.7,0,1.6,0.2,1.7,1.8c0.1,7.6,0.1,14.5,0,21.2c-0.1,2.9-4.3,2.4-4.2-0.1   c-0.1-4.7,0-10.8,0-15.7L6.6,97.4c-0.2,0.2-0.3,0.3-0.5,0.5c-0.7,0.8-1.6,1.7-2.6,1.7C1.8,99.5,0.8,97.4,2,96z" fill="#000000"/>
</g>
<g>
	<path class="st0" d="M96,99c-1.8-1.6-25.1-25.1-27.4-27.4c-0.1,2.3,0.1,13.8,0,15.9c-0.1,1.8-2.4,2.5-3.7,1.4   c-0.2-0.2-0.5-0.6-0.5-1.1c-0.1-7.2-0.1-14.4,0-21.7c0-0.7,0.2-1.6,1.8-1.7c7.6-0.1,14.5-0.1,21.2,0c2.9,0.1,2.4,4.3-0.1,4.2   c-4.7,0.1-10.8,0-15.7,0l25.8,25.8c0.2,0.2,0.3,0.3,0.5,0.5c0.8,0.7,1.7,1.6,1.7,2.6C99.5,99.2,97.4,100.2,96,99z" fill="#000000"/>
</g>
<g>
	<g>
		<path class="st1" d="M38.4,46.4c-0.4-4.6,3.1-9.7,7.7-11.3c7.1-2.4,14.1,1.2,16.1,8.4c1.1,4.2-0.1,8-2.9,11.3    c-0.7,0.9-1.5,1.7-2.2,2.5c-2.2,2.4-2.2,2.4-2.7,5.3c-2.6,0-5.2,0-7.9,0c0-1.8,0-3.5,0-5.3c0-0.4,0.4-0.8,0.7-1.1    c2.1-2.4,4.3-4.7,6.4-7.2c1.6-1.8,1.2-4.5-0.6-5.9s-4.4-1-5.7,0.9c-0.4,0.6-0.6,1.4-0.9,2.2C43.7,46.4,41.1,46.4,38.4,46.4z" fill="#000000"/>
		<path class="st1" d="M46.4,78.9c0-2.7,0-5.3,0-8c2.7,0,5.3,0,8,0c0,2.7,0,5.3,0,8C51.7,78.9,49.1,78.9,46.4,78.9z" fill="#000000"/>
	</g>
</g>
</svg>