<?xml version="1.0" encoding="utf-8"?>
<!-- Generator: Adobe Illustrator 25.0.0, SVG Export Plug-In . SVG Version: 6.00 Build 0)  -->
<svg version="1.1" id="Layer_1" xmlns="http://www.w3.org/2000/svg" xmlns:xlink="http://www.w3.org/1999/xlink" x="0px" y="0px"
	 viewBox="0 0 752 752" style="enable-background:new 0 0 752 752;" xml:space="preserve">
<style type="text/css">
	.st0{fill:url(#SVGID_1_);}
	.st1{fill:url(#SVGID_2_);}
	.st2{fill:url(#SVGID_3_);}
	.st3{fill:url(#SVGID_4_);}
</style>
<g>
	
		<linearGradient id="SVGID_1_" gradientUnits="userSpaceOnUse" x1="7.9968" y1="375.9777" x2="744.0064" y2="375.9777" gradientTransform="matrix(1 0 0 -1 0 752)">
		<stop  offset="6.926126e-08" style="stop-color:#2A3473"/>
		<stop  offset="1" style="stop-color:#0C85C6"/>
	</linearGradient>
	<path class="st0" d="M653.5,368.9c10,1.8,12-6.4,14.9-12.4c12.9-25.9,25.4-51.9,38-77.9c5.8-12,11.6-24,17.5-35.9
		c1.6-3.3,3.6-6.5,5.4-9.7c2.3-4,6.1-4.8,9.5-2.8s6.8,5.1,4.4,10.1c-7.1,15-14.1,30.1-21.3,45c-14.3,29.5-28.7,58.9-43,88.4
		c-2.5,5.2-4.7,10.4-11.6,11.6c-3.4,0.6-4.1,2.9-2.1,6.5c15.7,29.2,31.2,58.6,46.8,87.9c5.7,10.7,11.5,21.3,17.2,32
		c2.1,4,3.3,8,0.1,12c-3.3,4.1-9,4.6-12.1,0.1c-4.8-7-8.9-14.7-12.9-22.3c-19.6-37-39.2-74-58.7-111c-1.9-3.5-4.2-5.1-8.2-5
		c-25,0.1-50,0.2-75,0c-4.8,0-7.1,2.4-9.1,5.9c-10.5,18.1-21.1,36.2-31.6,54.3c-12.5,21.7-24.9,43.4-37.3,65.2c-4,7-8,13.8-12,20.8
		c-2.3,4.1-5,7-10.3,5.2c-0.9-0.3-2-0.1-3.1-0.1c-57,0-114,0.1-171-0.1c-2.6,0-6.3-2.2-7.7-4.5c-9.6-15.8-18.6-31.9-27.9-47.9
		c-14.2-24.5-28.4-49-42.6-73.6c-3.8-6.6-7.7-13.1-11.3-19.8c-1.9-3.6-4.2-5.5-8.6-5.5c-25.2,0.2-50.4,0-75.6,0.3
		c-2.5,0-5.9,1.8-7.4,3.9c-3.2,4.4-5.6,9.5-8.2,14.4c-16.9,31.7-33.7,63.4-50.6,95c-3.9,7.2-7.3,14.7-11.8,21.6
		c-1.6,2.5-5.4,4.5-8.4,4.8c-2,0.3-5.4-2.3-6.3-4.4c-0.9-2.2-0.4-5.7,0.8-8c16.4-31.7,33-63.2,49.6-94.8c4.7-8.9,9.5-17.7,14.3-26.5
		c2-3.6,1.1-6.2-2.9-6.8c-5-0.7-7.3-4.3-9.1-8.1c-10.6-21.7-21.1-43.5-31.7-65.3c-7.1-14.5-14.6-29-21.7-43.8
		C16.7,259,13,250.2,9,241.4c-2.2-4.7-0.7-8.5,3.7-10.2c4.2-1.6,8.4-1,10.8,4.1c13.4,27.4,27,54.7,40.5,82.1
		c7.6,15.4,15.3,30.8,23.1,46.2c2.2,4.3,15.4,7,18.5,3.6c1-1.1,0.6-4.2-0.2-5.9c-7.3-15.4-14.8-30.6-22.2-45.9
		c-12.6-26-25.2-52-37.8-78c-2.4-5.1-1-9.4,4.1-11.7c4.8-2.2,8.5-0.1,10.8,4.1c4.1,7.6,7.8,15.3,11.6,23.1
		c6.4,13,12.8,26.1,19.1,39.2c11.4,23.6,22.6,47.3,34.4,70.7c1.3,2.6,5.6,5.3,8.5,5.3c18.6,0.5,37.2,0.1,55.8,0.3
		c5.1,0.1,6.8-3.5,8.7-6.7c8.7-15.1,17.2-30.3,25.9-45.3c14.3-24.7,28.7-49.4,43-74c4.5-7.8,8.8-15.8,13.7-23.4
		c1.4-2.1,4.7-4.1,7.2-4.1c58.2-0.2,116.5-0.1,174.7-0.3c4.7,0,7.5,2.2,9.5,5.6c27.1,46.7,54.1,93.4,80.9,140.3
		c3.2,5.6,6.8,8.2,13.6,8c16.5-0.6,33-0.4,49.6-0.1c5.1,0.1,7.9-1.8,10.1-6.2c14.6-30.3,29.3-60.5,44.1-90.8
		c6.7-13.6,13.4-27.2,20.3-40.7c3.1-6.1,7.8-7.8,12.5-4.9c4.1,2.5,6,5.7,3.4,10.8c-16.3,33.1-32.4,66.3-48.6,99.5
		c-3.5,7.2-7.1,14.3-10.4,21.5c-1.3,2.9-1.9,6-2.8,9.1C647.8,367.5,650.6,368.2,653.5,368.9z M376,520.7c25.4,0,50.8,0.1,76.2-0.1
		c2.7,0,6.3-1.1,8-3.1c3.3-3.6,5.8-8,8.2-12.3c14.4-24.9,28.6-49.8,42.9-74.7c9.5-16.5,19.2-32.9,28.5-49.6c1.3-2.3,1.8-6.1,0.7-8.3
		c-4.1-8.2-9.1-16.1-13.7-24.1c-12-20.8-23.9-41.6-35.9-62.4c-9.3-16.2-18.7-32.3-28.1-48.5c-2.5-4.4-5.8-7-11.3-7
		c-50.4,0.1-100.7,0.1-151.1,0c-5,0-8.6,1.9-11.1,6.3c-6.7,11.7-13.6,23.4-20.4,35.1c-18.5,32-36.8,64.1-55.5,95.9
		c-3.4,5.8-3.1,10.2,0.2,15.7c12.6,21.1,24.8,42.5,37.2,63.8c12.7,22,25.6,44,38,66.2c3.1,5.6,7,7.1,12.9,7.1
		C326.5,520.6,351.3,520.7,376,520.7z"/>
	
		<linearGradient id="SVGID_2_" gradientUnits="userSpaceOnUse" x1="231.0148" y1="317.4221" x2="316.5" y2="317.4221" gradientTransform="matrix(1 0 0 -1 0 752)">
		<stop  offset="6.926126e-08" style="stop-color:#2A3473"/>
		<stop  offset="1" style="stop-color:#0C85C6"/>
	</linearGradient>
	<path class="st1" d="M316.5,495.2c-1.8,1.9-3.5,5-5.8,5.8c-2.4,0.8-6.3,0.1-8.1-1.5c-3.1-2.8-5.2-6.8-7.4-10.5
		c-20.2-34.8-40.3-69.5-60.2-104.5c-2.2-3.8-6.8-8-1.6-13.2c4.3-4.4,8.9-4.9,12.5,0.1c5,6.9,9.1,14.6,13.4,22
		c14.2,24.5,28.4,49,42.6,73.5c3.9,6.7,7.9,13.4,11.6,20.3C314.7,489.3,315.3,491.8,316.5,495.2z"/>
	
		<linearGradient id="SVGID_3_" gradientUnits="userSpaceOnUse" x1="436.4637" y1="316.8451" x2="521.5" y2="316.8451" gradientTransform="matrix(1 0 0 -1 0 752)">
		<stop  offset="6.926126e-08" style="stop-color:#2A3473"/>
		<stop  offset="1" style="stop-color:#0C85C6"/>
	</linearGradient>
	<path class="st2" d="M521.5,375.6c-2.8,5.3-5,9.6-7.4,13.8c-12,21-24.1,41.9-36.2,62.8c-8.6,14.9-17.1,29.9-26.1,44.6
		c-4.4,7.2-11.5,7.2-14.8,0.3c-0.9-2-0.6-5.3,0.4-7.3c6.9-12.8,14.1-25.4,21.4-38c12-20.8,24-41.5,36.1-62.2
		c3.3-5.7,6.4-11.4,9.9-17c2.3-3.7,6.1-5.6,10-3.9C517.4,369.8,519.1,373,521.5,375.6z"/>
	
		<linearGradient id="SVGID_4_" gradientUnits="userSpaceOnUse" x1="299.6427" y1="494.6112" x2="451.7078" y2="494.6112" gradientTransform="matrix(1 0 0 -1 0 752)">
		<stop  offset="6.926126e-08" style="stop-color:#2A3473"/>
		<stop  offset="1" style="stop-color:#0C85C6"/>
	</linearGradient>
	<path class="st3" d="M376.2,265.4c-22.1,0-44.2-0.2-66.3,0.1c-5.8,0.1-9.6-2.6-10.2-7.6c-0.6-5.2,3.6-7.2,8.5-7.4
		c3.9-0.2,7.7-1.1,11.6-1.1c35.1-0.1,70.2-0.1,105.3-0.1c6.1,0,12.1-0.1,18.2,0.1c4.9,0.1,8.6,4.1,8.4,8.8c-0.3,5.5-3.5,7.3-8.6,7.3
		C420.8,265.4,398.5,265.4,376.2,265.4z"/>
</g>
</svg>
