<?xml version="1.0" encoding="utf-8"?>
<!-- Generator: Adobe Illustrator 25.0.0, SVG Export Plug-In . SVG Version: 6.00 Build 0)  -->
<svg version="1.1" id="Layer_1" xmlns="http://www.w3.org/2000/svg" xmlns:xlink="http://www.w3.org/1999/xlink" x="0px" y="0px"
	 viewBox="0 0 752 752" style="enable-background:new 0 0 752 752;" xml:space="preserve">
<style type="text/css">
	.st0{fill:url(#SVGID_1_);}
	.st1{fill:url(#SVGID_2_);}
	.st2{fill:url(#SVGID_3_);}
	.st3{fill:url(#SVGID_4_);}
	.st4{fill:url(#SVGID_5_);}
	.st5{fill:url(#SVGID_6_);}
	.st6{fill:url(#SVGID_7_);}
	.st7{fill:url(#SVGID_8_);}
	.st8{fill:url(#SVGID_9_);}
	.st9{fill:url(#SVGID_10_);}
	.st10{fill:url(#SVGID_11_);}
	.st11{fill:url(#SVGID_12_);}
	.st12{fill:url(#SVGID_13_);}
	.st13{fill:url(#SVGID_14_);}
	.st14{fill:url(#SVGID_15_);}
</style>
<g>
	
		<linearGradient id="SVGID_1_" gradientUnits="userSpaceOnUse" x1="76.393" y1="375.9996" x2="697.816" y2="375.9996" gradientTransform="matrix(1 0 0 -1 0 752)">
		<stop  offset="6.926126e-08" style="stop-color:#2A3473"/>
		<stop  offset="1" style="stop-color:#0C85C6"/>
	</linearGradient>
	<path class="st0" d="M675.6,555.9c0.5-4.6,1-7.1,1-9.5c0-165.2,0-330.5,0-495.7c0-8.3-0.3-8.6-8.6-8.6c-150.2,0-300.4,0-450.6,0
		c-8.7,0-8.9,0.2-8.9,8.9c0,6.4-0.1,12.7,0,19.1c0,3.3-1.2,5.1-4.8,5.1c-20.3-0.2-16.2,2.3-16.5-14.9c-0.2-10.6,0.3-21.2-0.2-31.8
		c-0.3-6.3,2.1-7.8,8.1-7.8c46.8,0.2,93.6,0.1,140.4,0.1c117.6,0,235.1,0,352.7,0c9.6,0,9.6,0,9.6,9.8c0,201.9,0.1,403.7-0.2,605.6
		c0,25.5-6.4,49.9-22.3,70.6c-11.8,15.3-26.5,24.6-47.3,24.5c-161.8-0.4-323.7-0.3-485.5-0.2c-17,0-29.9-7.7-40.2-20.2
		C75.7,678.7,72.7,641.3,79.5,602c3.1-18,9.7-34.4,21.8-48.3c10.7-12.3,23.3-21.2,40.7-20.8c12.3,0.3,24.6-0.1,36.9,0.1
		c5.9,0.1,8.5-2.1,8.3-8.1c-0.3-6.6,0-13.1-0.1-19.7c-0.1-4.5,2-6.4,6.5-6.6c14.6-0.8,14.8-0.6,14.8,14.2c0,4.7,0,9.3,0,14
		c0,4.2,2.1,6.2,6.2,6.2c2.3,0,4.7,0,7,0c136.4,0,272.8,0.1,409.3-0.1c14.4,0,25.6,5.6,35.7,14.9
		C669.2,550.2,671.8,552.4,675.6,555.9z M589.1,709.7c-4.4-7.8-8.4-13.9-11.6-20.5c-10.6-22.1-13-45.8-11.3-69.9
		c1.4-19.3,6.3-37.8,16.6-54.5c1.9-3.1,3.2-6.5,4.8-9.8c-3.7-0.6-7.3-1.8-11-1.8c-141.5-0.1-283,0.2-424.5-0.3
		c-20.8-0.1-33.7,9.1-42.8,26.4c-10.1,19.1-12.2,39.6-11.5,60.9c0.6,17.3,5.1,33.3,13.5,48.2c7.3,13,17.6,22.6,33.4,22.6
		c145.1,0.2,290.2,0.1,435.3,0.1C582.7,711,585.3,710.2,589.1,709.7z M620.8,642.1L620.8,642.1c-8.9,0-17.8,0.1-26.7,0
		c-5.2,0-7.3,2.5-6.5,7.6c3,17.9,8.2,35.1,20.4,48.9c8.8,9.9,22.6,16.9,37.3,8c9.1-5.6,15.5-13.5,20.1-23
		c9.3-19.1,12.5-39.3,11.1-60.3c-1.3-19.2-5.7-37.8-17.7-53.2c-12.7-16.4-27.2-22.8-45-9.5c-1.7,1.3-2.8,3.3-4.1,5
		c1.8,1.1,3.5,2.8,5.5,3.2c8.5,1.6,15.4,6.1,20.9,12.3c13.9,15.8,17.3,35.2,17.3,55.5c0,4-1.9,5.6-5.9,5.6
		C638.6,642,629.7,642.1,620.8,642.1z M609.7,622L609.7,622c4.6,0,9.3,0.2,13.9,0c6.5-0.2,8.4-2.2,6.3-8.2c-2.2-6.3-4.9-12.6-8.6-18
		c-5.8-8.4-15.2-9.1-21.9-1.3c-4.6,5.4-7.5,12.4-10.3,19c-2.3,5.3-0.3,8,5.4,8.4C599.6,622.2,604.7,622,609.7,622z"/>
	
		<linearGradient id="SVGID_2_" gradientUnits="userSpaceOnUse" x1="53.9" y1="464.4256" x2="431.0334" y2="464.4256" gradientTransform="matrix(1 0 0 -1 0 752)">
		<stop  offset="6.926126e-08" style="stop-color:#2A3473"/>
		<stop  offset="1" style="stop-color:#0C85C6"/>
	</linearGradient>
	<path class="st1" d="M242.7,99.6C344.9,97,433,184.7,431,290.6c-1.8,99.9-84,186.1-190.6,185c-102.9-1.1-186.4-84-186.5-189
		C53.9,183.3,140.8,96.9,242.7,99.6z M409.7,287.5c0.7-92.7-74.7-167.9-166.6-167.7c-94.1,0.1-164.4,73.9-168,160.4
		C71,379,151,451.8,236.5,454.5C334.8,457.7,411.1,377,409.7,287.5z"/>
	
		<linearGradient id="SVGID_3_" gradientUnits="userSpaceOnUse" x1="498.6851" y1="409.1" x2="520" y2="409.1" gradientTransform="matrix(1 0 0 -1 0 752)">
		<stop  offset="6.926126e-08" style="stop-color:#2A3473"/>
		<stop  offset="1" style="stop-color:#0C85C6"/>
	</linearGradient>
	<path class="st2" d="M509.2,332.2c10.8,0,10.8,0,10.8,10.8c0,10.4-0.2,10.6-10.7,10.6c-10.6,0-10.7-0.1-10.6-11.9
		C498.7,332.2,498.7,332.2,509.2,332.2z"/>
	
		<linearGradient id="SVGID_4_" gradientUnits="userSpaceOnUse" x1="498.7" y1="631.6" x2="520.0312" y2="631.6" gradientTransform="matrix(1 0 0 -1 0 752)">
		<stop  offset="6.926126e-08" style="stop-color:#2A3473"/>
		<stop  offset="1" style="stop-color:#0C85C6"/>
	</linearGradient>
	<path class="st3" d="M509.5,131.1c-10.7,0-10.8-0.1-10.8-11.1c0-10.1,0.3-10.3,11-10.3c10.1,0,10.4,0.3,10.4,10.9
		C520,131.1,520,131.1,509.5,131.1z"/>
	
		<linearGradient id="SVGID_5_" gradientUnits="userSpaceOnUse" x1="454.4265" y1="520.3625" x2="475.1572" y2="520.3625" gradientTransform="matrix(1 0 0 -1 0 752)">
		<stop  offset="6.926126e-08" style="stop-color:#2A3473"/>
		<stop  offset="1" style="stop-color:#0C85C6"/>
	</linearGradient>
	<path class="st4" d="M465.6,220.7c3.2,1,8.8,1.6,9.1,3.2c1,5.4,0.3,11.2-0.1,16.9c0,0.6-2,1.5-3.2,1.6c-4.4,0.2-8.8,0.3-13.2-0.1
		c-1.3-0.1-3.4-1.8-3.5-2.9c-0.4-5-0.4-10.1-0.1-15.1c0.1-0.9,2.3-2.2,3.6-2.4c2.3-0.4,4.6-0.1,7-0.1
		C465.4,221.4,465.5,221,465.6,220.7z"/>
	
		<linearGradient id="SVGID_6_" gradientUnits="userSpaceOnUse" x1="566.053" y1="520.0572" x2="587.4544" y2="520.0572" gradientTransform="matrix(1 0 0 -1 0 752)">
		<stop  offset="6.926126e-08" style="stop-color:#2A3473"/>
		<stop  offset="1" style="stop-color:#0C85C6"/>
	</linearGradient>
	<path class="st5" d="M566.1,231.9c0.1-11.6-0.6-10.2,11.6-10.3c9.7-0.1,9.9,0,9.7,9.6c-0.1,4.7,1.9,11.2-6.3,11.1
		C566,242.3,566,242.2,566.1,231.9z"/>
	
		<linearGradient id="SVGID_7_" gradientUnits="userSpaceOnUse" x1="610.5424" y1="631.623" x2="631.1232" y2="631.623" gradientTransform="matrix(1 0 0 -1 0 752)">
		<stop  offset="6.926126e-08" style="stop-color:#2A3473"/>
		<stop  offset="1" style="stop-color:#0C85C6"/>
	</linearGradient>
	<path class="st6" d="M621.1,131.1c-10.6,0-10.6,0-10.6-10.4c0-10.7,0.2-11.1,10.3-10.8c3.9,0.1,10-2.1,10.1,5
		C631.4,131.1,631.2,131.1,621.1,131.1z"/>
	
		<linearGradient id="SVGID_8_" gradientUnits="userSpaceOnUse" x1="610.5424" y1="409.0585" x2="630.6024" y2="409.0585" gradientTransform="matrix(1 0 0 -1 0 752)">
		<stop  offset="6.926126e-08" style="stop-color:#2A3473"/>
		<stop  offset="1" style="stop-color:#0C85C6"/>
	</linearGradient>
	<path class="st7" d="M630.6,342.7c0,10.9,0,10.9-10.2,10.9c-9.9,0-9.9,0-9.9-11.1c0-10.2,0-10.2,10.5-10.2
		C630.6,332.2,630.6,332.2,630.6,342.7z"/>
	
		<linearGradient id="SVGID_9_" gradientUnits="userSpaceOnUse" x1="566.3665" y1="297.5826" x2="587.3838" y2="297.5826" gradientTransform="matrix(1 0 0 -1 0 752)">
		<stop  offset="6.926126e-08" style="stop-color:#2A3473"/>
		<stop  offset="1" style="stop-color:#0C85C6"/>
	</linearGradient>
	<path class="st8" d="M576.1,464.8c-3.2-0.8-8.8-1-9-2.4c-1.1-5.2-0.6-10.9-0.4-16.3c0-0.7,2.2-1.7,3.5-1.9c2.3-0.3,4.6-0.1,7-0.1
		c10.3,0,10.3,0,10.3,10.1C587.4,464.1,587.4,464.1,576.1,464.8z"/>
	
		<linearGradient id="SVGID_10_" gradientUnits="userSpaceOnUse" x1="454.2" y1="297.95" x2="475.5334" y2="297.95" gradientTransform="matrix(1 0 0 -1 0 752)">
		<stop  offset="6.926126e-08" style="stop-color:#2A3473"/>
		<stop  offset="1" style="stop-color:#0C85C6"/>
	</linearGradient>
	<path class="st9" d="M464.9,464.1c-10.7,0-10.7,0-10.7-10.3c0-9.6,0.3-9.8,11.4-9.8c9.9,0,9.9,0,9.9,10.4
		C475.5,464.1,475.5,464.1,464.9,464.1z"/>
	
		<linearGradient id="SVGID_11_" gradientUnits="userSpaceOnUse" x1="388.095" y1="142.15" x2="409.0674" y2="142.15" gradientTransform="matrix(1 0 0 -1 0 752)">
		<stop  offset="6.926126e-08" style="stop-color:#2A3473"/>
		<stop  offset="1" style="stop-color:#0C85C6"/>
	</linearGradient>
	<path class="st10" d="M398.7,599.2c3.9,0.7,10.5-2.4,10.4,6.3c-0.2,15-0.2,15-11,15c-9.9,0-9.9,0-9.9-11.3
		C388.1,599.2,388.1,599.2,398.7,599.2z"/>
	
		<linearGradient id="SVGID_12_" gradientUnits="userSpaceOnUse" x1="164.8829" y1="142.1681" x2="186.3324" y2="142.1681" gradientTransform="matrix(1 0 0 -1 0 752)">
		<stop  offset="6.926126e-08" style="stop-color:#2A3473"/>
		<stop  offset="1" style="stop-color:#0C85C6"/>
	</linearGradient>
	<path class="st11" d="M186.3,610.4c-0.7,3.2-0.9,8.8-2.2,9.1c-5.4,1-11.2,0.6-16.8,0.3c-0.8,0-2-2.2-2.1-3.4
		c-0.3-4.4-0.4-8.7-0.1-13.1c0.1-1.2,1.9-3.3,3-3.4c5-0.4,10-0.5,15-0.2c0.9,0.1,2.1,2.3,2.4,3.7c0.4,2.2,0.1,4.6,0.1,6.9
		C185.9,610.3,186.1,610.3,186.3,610.4z"/>
	
		<linearGradient id="SVGID_13_" gradientUnits="userSpaceOnUse" x1="498.554" y1="87.4132" x2="520.1204" y2="87.4132" gradientTransform="matrix(1 0 0 -1 0 752)">
		<stop  offset="6.926126e-08" style="stop-color:#2A3473"/>
		<stop  offset="1" style="stop-color:#0C85C6"/>
	</linearGradient>
	<path class="st12" d="M509.3,675.1c-1.7,0-3.4-0.1-5,0c-4,0.3-5.5-1.5-5.7-5.5c-0.7-14.3,3.5-17.8,18-14.3c1.3,0.3,2.7,2.2,3.2,3.7
		c0.6,1.7,0.2,3.7,0.2,5.6C520,675.2,520,675.2,509.3,675.1z"/>
	
		<linearGradient id="SVGID_14_" gradientUnits="userSpaceOnUse" x1="276.1212" y1="87.3583" x2="297.539" y2="87.3583" gradientTransform="matrix(1 0 0 -1 0 752)">
		<stop  offset="6.926126e-08" style="stop-color:#2A3473"/>
		<stop  offset="1" style="stop-color:#0C85C6"/>
	</linearGradient>
	<path class="st13" d="M286.8,675.1c-1.7,0-3.4-0.1-5,0c-4.1,0.3-5.4-1.6-5.6-5.6c-0.6-14.1,3.8-17.7,18-14.2c1.2,0.3,2.9,2,3,3.1
		c0.4,4.4,0.4,8.8,0,13.2c-0.1,1.2-2.1,2.9-3.5,3.3C291.5,675.5,289.1,675.1,286.8,675.1L286.8,675.1z"/>
	
		<linearGradient id="SVGID_15_" gradientUnits="userSpaceOnUse" x1="106" y1="465.0933" x2="378.9" y2="465.0933" gradientTransform="matrix(1 0 0 -1 0 752)">
		<stop  offset="6.926126e-08" style="stop-color:#2A3473"/>
		<stop  offset="1" style="stop-color:#0C85C6"/>
	</linearGradient>
	<path class="st14" d="M378.9,287.3c-9.5,5.9-17.7,10.9-25.9,16c-3.9,2.4-8,4.7-11.9,7.2c-5.1,3.3-5,6,0.3,9.2
		c10.6,6.5,21.2,12.9,31.7,19.5c1.5,0.9,2.8,2.2,5.1,4c-9.7,6.1-18.5,11.6-27.4,17.1c-34.3,21.3-68.5,42.7-103,63.7
		c-2.6,1.6-7.8,1.5-10.5-0.1c-21.1-12.6-41.9-25.8-62.8-38.7c-15.2-9.4-30.5-18.7-45.7-28.1c-7.2-4.5-14.4-9-22.8-14.3
		c6.4-4.1,11.7-7.4,17-10.7c6.8-4.2,13.6-8.4,20.5-12.5c5.2-3.1,5.4-5.9,0.3-9.1c-9.5-5.9-19-11.6-28.5-17.5c-2.8-1.7-5.4-3.7-9-6.3
		c9.5-5.8,17.8-10.9,26.2-16.1c3.8-2.3,7.6-4.5,11.3-6.8c4.6-2.8,4.7-6.3,0.1-9.1c-10.6-6.5-21.3-12.8-31.9-19.3
		c-1.8-1.1-3.3-2.8-5.5-4.7c13.8-8.4,26.8-16.2,39.6-24.1c30.5-18.9,61-38,91.6-56.8c2.2-1.3,6.5-1.6,8.6-0.3
		c15.9,9.4,31.6,19.3,47.3,29c27,16.7,54.1,33.3,81.1,50c3.4,2.1,3.1,4-0.2,6c-11,6.6-22,13.2-32.9,20c-1.7,1.1-3.6,3.1-3.9,4.9
		c-0.2,1.2,2.1,3.2,3.7,4.2C353.4,271.4,365.3,278.8,378.9,287.3z M242,290.9c2.5-1.1,4.5-1.8,6.3-2.9
		c27.8-17.1,55.5-34.3,83.2-51.6c1.7-1.1,3.8-3.3,3.8-4.9c0-1.7-2.1-3.9-3.8-4.9c-11.8-7.4-23.7-14.5-35.5-21.7
		c-15.6-9.6-31-19.5-46.8-28.7c-2.9-1.7-8-2.4-11-1c-7.6,3.5-14.5,8.4-21.7,12.8c-20.9,13-41.8,26-62.7,39.1c-1.7,1.1-4.2,3-4.2,4.5
		c0.1,1.7,2.3,3.7,4.1,4.8c25.5,16,51,31.9,76.6,47.8C234.1,286.4,238.1,288.6,242,290.9z M242.7,346.3c2.2-1.1,4.5-2.1,6.6-3.4
		c12.7-7.9,25.3-15.8,38-23.7c15.2-9.4,30.4-18.8,45.6-28.2c4.1-2.6,5-4.7-0.1-7.5c-4.8-2.6-8.9-6.4-13.7-8.9
		c-2.4-1.2-6.5-1.8-8.6-0.6c-20.8,12.4-41.5,25-61.8,38.1c-4.5,2.9-7.5,3.1-11.9,0.3c-20.3-12.8-40.6-25.5-61.3-37.8
		c-2.6-1.5-7.3-1.1-10.3,0.2c-4.6,2-8.5,5.5-12.7,8.3c-5.6,3.7-5.7,4.7-0.3,8.1c28.4,17.6,57,35.2,85.5,52.7
		C239.2,344.9,240.8,345.5,242.7,346.3z M338.4,343.1c-6.7-4.5-12.1-8-17.3-11.8c-4.8-3.4-9.1-3-14,0
		c-20.3,12.7-40.7,25.4-61.2,37.8c-1.8,1.1-5.3,1.1-7,0c-20.3-12.3-40.5-24.8-60.7-37.5c-5.2-3.3-9.9-4.2-14.9,0.3
		c-2.7,2.3-5.9,4-9,5.8c-6.5,3.9-6.6,6.2-0.3,10.1c27,16.8,54.1,33.4,80.9,50.4c5.5,3.5,9.7,3.3,14.9,0c20.8-13.1,41.8-26,62.7-39
		C320.5,354.4,328.5,349.4,338.4,343.1z"/>
</g>
</svg>
