<?xml version="1.0" encoding="utf-8"?>
<!-- Generator: Adobe Illustrator 25.0.0, SVG Export Plug-In . SVG Version: 6.00 Build 0)  -->
<svg version="1.1" id="Layer_1" xmlns="http://www.w3.org/2000/svg" xmlns:xlink="http://www.w3.org/1999/xlink" x="0px" y="0px"
	 viewBox="0 0 752 752" style="enable-background:new 0 0 752 752;" xml:space="preserve">
<style type="text/css">
	.st0{fill:url(#SVGID_1_);}
	.st1{fill:url(#SVGID_2_);}
	.st2{fill:url(#SVGID_3_);}
</style>
<g>
	
		<linearGradient id="SVGID_1_" gradientUnits="userSpaceOnUse" x1="22.9787" y1="375.984" x2="728.732" y2="375.984" gradientTransform="matrix(1 0 0 -1 0 752)">
		<stop  offset="6.926126e-08" style="stop-color:#2A3473"/>
		<stop  offset="1" style="stop-color:#0C85C6"/>
	</linearGradient>
	<path class="st0" d="M388.1,634.8c-78.8,0-157.6,0.3-236.5-0.3c-13.7-0.1-22.5,2.5-27.4,16.9c-5.1,14.7-26.3,21.2-38.9,12.2
		c-4.3-3.1-6.9-10.8-7.4-16.7c-0.6-8.2-2.9-12.2-11.6-12.3c-13.1-0.1-17.9-8.1-17.8-20.2c0.1-11.5-1.2-23.2,0.5-34.5
		c0.9-6.2,5.9-15.3,10.8-16.5c11.3-2.9,10.3-10,10.3-17.8c0-21.8,0-43.7,0-65.5c0-55.2-0.4-110.4,0.3-165.5
		c0.2-14.4-3.7-24.3-14.1-34.7c-62.1-61.9-33.1-169,51.4-191.7c50.8-13.7,104.9,9.7,129.7,56.2c25.8,48.2,15.3,106-25.7,142.4
		c-4.2,3.7-7.9,8.1-11.8,12.1c5.6,1.9,11.1,4.3,16.8,5.7c74.5,18.8,149,37.5,223.5,56c15.2,3.8,15.3,3.5,16.1-12.1
		c0.9-16.7,4.2-20,20.7-20.4c2.4-0.1,4.9,0,7.3,0c20,0.2,22.2,2.3,22.4,21.8c0.1,17-0.3,34,0.2,50.9c0.1,4,2.9,8,4.4,12
		c1.2-4.2,3.3-8.4,3.5-12.7c0.6-8.5-0.2-17,0.3-25.5c0.8-14,4.9-17.8,19.1-18.8c2.4-0.2,4.8-0.1,7.3-0.1
		c21.4,0.1,23.6,2.3,23.7,24.2c0,3.6-0.1,7.3,0,10.9c0.2,6,0.6,12,0.9,18.1c2.7-4.7,4.4-10.6,8.3-13.8c4.7-3.9,11.3-7.6,17.1-7.8
		c26.7-0.8,53.3-0.4,80-0.2c3.5,0,7.4,0.7,10.4,2.4c3,1.6,7.6,5.2,7.3,7.3c-2.3,16.2,19.6,17.7,18.5,35.2
		c-2.4,37.4-0.6,75.1-0.8,112.7c0,8.7-0.3,15.8,11.2,19.1c4.7,1.4,9,10.8,9.8,17c1.6,11.3,0.4,23,0.4,34.5c0,11.3-4.7,19-16.8,19.2
		c-9.9,0.1-12.6,4.9-11.9,13.7c0.9,10.1-3.8,17.1-13.8,17.7c-11,0.7-26.1,5-30.1-9.4c-6.5-23-22.2-22.1-40.5-22
		C539.7,635.1,463.9,634.8,388.1,634.8z M387.8,561.5c95.8,0,191.7,0,287.5,0c16.8,0,17-0.2,17.1-17.1c0.1-31.5,0.1-63.1,0-94.6
		c0-19.7-0.1-19.8-19.9-19.8c-109.8,0-219.6,0-329.3,0c-80.7,0-161.3,0-242,0c-15.9,0-16.1,0.3-16.1,16.2c-0.1,32.1-0.1,64.3,0,96.5
		c0,18.8,0.1,18.9,19,18.9C198.5,561.5,293.2,561.5,387.8,561.5z M390.7,577.1c0-0.2,0-0.4,0-0.7c-100.6,0-201.1,0-301.7,0
		c-4.8,0-9.7,0.2-14.5,0c-7.9-0.3-10.8,3.8-10.6,11.2c0.2,7.3,0.1,14.5,0,21.8c-0.1,6.7,2.9,10.1,9.8,9.9c4.8-0.1,9.7,0,14.5,0
		c181.7,0.1,363.5,0.2,545.2,0.3c21.8,0,43.6,0.2,65.4-0.1c4,0,11.2-1.1,11.4-2.5c1.5-11.8,2.5-23.9,1.4-35.7
		c-0.2-2-11.4-4.1-17.5-4.2C593.1,577,491.9,577.1,390.7,577.1z M306.9,414.5c19.4,0,38.8,0,58.2,0c26.1,0,52.2,0.2,78.2-0.3
		c4.2-0.1,10.5-1.8,12.1-4.8c7.1-13.5-0.5-29.6-14.7-33.1c-84.6-21-169.1-42.2-253.8-62.6c-10.1-2.4-21.2-0.3-31.8-0.6
		c-9.5-0.3-10.8,4.4-9.4,12.6c4.1,23.9,7.7,47.8,11.3,71.8c2.5,16.5,2.4,16.8,18.8,16.8C219.6,414.5,263.3,414.5,306.9,414.5z
		 M235.5,198.7C235.1,143.5,190,98,136,99.6c-51.7,1.5-97.2,39.8-97.3,99.5c-0.1,63.1,50.1,100.2,100.6,100
		C192.1,299,235.9,253,235.5,198.7z M114,414.4c4.8,0,9.7,0.1,14.5,0c15-0.5,15.1-0.7,12.7-15.7c-2.7-16.7-7.9-33.4-7.7-50
		c0.3-26.4-12.1-37.7-36.6-42.3c-11.3-2.1-12.2,1.3-12.1,10.2c0.3,23-0.1,45.9,0.1,68.9C85.3,417.3,80.2,414.2,114,414.4z
		 M492,379.7h-0.1c0-9.7,0.8-19.4-0.5-28.9c-0.4-3-6.1-7.2-9.4-7.2c-3.1,0-8.8,5-8.7,7.6c0.3,6.5,2.1,13.7,5.5,19.1
		c3.5,5.6,3.2,8.4-0.3,14c-3.7,5.9-5,14-5.3,21.1c-0.1,2.8,5,7.4,8.5,8.4c6,1.6,10.5-1.4,10.4-8.7C491.9,396.7,492,388.2,492,379.7z
		 M632.6,403c-12,0-24.1-0.4-36.1,0.3c-3.2,0.2-6.2,3.7-9.3,5.7c2.7,1.8,5.5,5,8.2,5c24.7,0.4,49.3,0.4,74,0c2.5,0,5-3.7,7.5-5.7
		c-2.7-1.8-5.4-5-8.2-5.1C656.6,402.6,644.6,403,632.6,403z M531.6,392.6L531.6,392.6c-0.1,3.6-0.1,7.2-0.1,10.8
		c-0.1,5.9,0.7,10.7,8.4,10.9c7.5,0.2,11.1-2.7,10.7-10.5c-0.3-8.4,0.7-16.9-0.7-25.1c-0.5-2.8-6.2-6.1-9.8-6.5
		c-2.6-0.3-7.2,3.4-8.1,6.2C530.6,382.7,531.6,387.8,531.6,392.6z M690.3,643.1c-7.3-4.2-10.7-7.8-14.1-7.8c-3.4,0-6.8,3.5-10.2,5.4
		c3.6,3.1,6.8,7.2,10.9,8.9C679.1,650.5,683,646.9,690.3,643.1z M102.1,631.4c-4,5.3-6.7,8.8-9.3,12.3c2.9,2.1,7,6.6,8.6,5.8
		c4.1-1.9,7.2-6.1,10.6-9.4C109.4,637.9,106.8,635.6,102.1,631.4z"/>
	
		<linearGradient id="SVGID_2_" gradientUnits="userSpaceOnUse" x1="54.5998" y1="552.45" x2="219.6002" y2="552.45" gradientTransform="matrix(1 0 0 -1 0 752)">
		<stop  offset="6.926126e-08" style="stop-color:#2A3473"/>
		<stop  offset="1" style="stop-color:#0C85C6"/>
	</linearGradient>
	<path class="st1" d="M219.6,199.1c0.1,46.6-36.6,84-82.3,84c-45.8,0-82.6-37.2-82.7-83.6c-0.1-46.9,35.9-83.4,82.4-83.5
		C183.3,116,219.5,152.3,219.6,199.1z M136.5,267c37.6,0.1,68.4-30.7,68.3-68.1c-0.2-36.6-30.8-67.4-67.1-67.6
		c-37.8-0.1-67.9,30.2-67.7,68.2C70,236.9,99.6,266.9,136.5,267z"/>
	
		<linearGradient id="SVGID_3_" gradientUnits="userSpaceOnUse" x1="102.5873" y1="552.8008" x2="171.9125" y2="552.8008" gradientTransform="matrix(1 0 0 -1 0 752)">
		<stop  offset="6.926126e-08" style="stop-color:#2A3473"/>
		<stop  offset="1" style="stop-color:#0C85C6"/>
	</linearGradient>
	<path class="st2" d="M137.3,164.5c20.5,0.2,35.1,15.3,34.6,35.8C171.4,220,157,234,137,233.9c-20.6,0-34.9-14.9-34.4-35.8
		C103,178.3,117.4,164.3,137.3,164.5z M136.3,219.1c9.9,0.5,20-8.9,20.5-19c0.5-9.7-9.1-20.2-18.8-20.7s-19.9,9-20.4,19.1
		C117.1,208.5,126.2,218.5,136.3,219.1z"/>
</g>
</svg>
