<svg xmlns="http://www.w3.org/2000/svg" xmlns:xlink="http://www.w3.org/1999/xlink" version="1.1" id="Layer_1" x="0px" y="0px" viewBox="0 0 101 101" style="enable-background:new 0 0 101 101;" xml:space="preserve">
<style type="text/css">
	.st0{fill:#e0272d;}
</style>
<g>
	<path class="st0" d="M24.8,79c-0.2,0.4-0.3,0.8-0.4,1.1c-0.2,0.5-0.5,0.8-1.1,0.9c-0.8,0.1-1.6,0.1-2.4,0.1c-2.6,0-5.1,0-7.7,0   c-1.5,0-1.7-0.2-1.8-1.7c-0.1-1.8-0.1-3.7-0.1-5.5c0-8,0-15.9,0-23.9c0-0.9,0.7-1.6,1.6-1.7c0.5,0,1,0,1.4,0.1   c4.2,0.3,8.3,0.8,12.4,1.9c0.9,0.3,1.9,0.6,2.8,1c1.1,0.5,1.8,1.3,1.5,2.7c-0.1,0.3-0.1,0.6-0.1,1c0.2,0,0.4,0,0.6,0   c3.9,0,7.8,0,11.8,0c0.5,0,0.8-0.1,1.2-0.4c1.4-1.1,3-2,4.7-2.4c2.4-0.6,4.8-0.3,7.1,0.6c3.1,1.2,6.1,2.5,9.2,3.7   c0.6,0.2,1.2,0.5,1.8,0.7c0.1-0.1,0.1-0.1,0.1-0.1c-0.2-1.4,0.6-1.9,1.7-2.4c4.1-1.5,8.3-2.4,12.7-2.8c2.1-0.2,4.2-0.2,6.3-0.4   c0.3,0,0.5,0,0.8,0.1c0.8,0.1,1.3,0.5,1.3,1.4c0.1,1.1,0.1,2.2,0.1,3.4c0,8.1,0,16.2,0,24.3c0,0.7,0,1.3-0.1,2   c-0.1,1.2-0.5,1.7-1.7,1.7c-1.4,0.1-2.8,0.1-4.2,0.1c-1.9,0-3.9,0-5.8-0.1c-0.2,0-0.5-0.1-0.7-0.3c-0.3-0.5-0.6-1.1-0.9-1.6   c-0.3-0.6-0.3-0.6-0.8-0.3c-0.1,0.1-0.2,0.2-0.4,0.2c-1.1,0.6-1.7,1.4-1.7,2.8c0,2.1-2.1,4.1-4.4,4.6c-0.2,0-0.4,0-0.6,0.1   c-0.3,0.1-0.7,0.3-0.8,0.5c-1.4,2.2-3.4,3.1-6,3c-0.4,0-0.7,0.2-0.9,0.5c-1,1.4-2.3,2.6-4.1,2.8c-0.7,0.1-1.3,0-2,0   c-0.4,0-0.8-0.1-1.1,0.1c-2.7,1.4-5.4,0.9-7.9-0.5c-1.9-1-3.6-2.4-5.4-3.7c-4.4-3.3-8.7-6.7-12.7-10.4c-1-0.9-1.9-1.9-2.9-2.8   C25.2,79.3,25,79.2,24.8,79z M51.5,94.4c-0.2-0.3-0.4-0.4-0.5-0.6c-1.3-1.4-2.6-2.7-3.9-4.1c-0.8-0.9-1.6-1.8-2.4-2.7   c-0.5-0.6-0.4-1.4,0.1-2c0.6-0.6,1.4-0.6,2-0.1c0.4,0.4,0.9,0.8,1.3,1.2c2.3,2.3,4.6,4.6,7,6.8c1,0.9,1.8,0.9,2.9,0.1   c1-0.8,1-1,0.2-2c-1.1-1.2-2.2-2.3-3.3-3.4c-1.2-1.3-2.4-2.5-3.6-3.8c-0.6-0.7-0.5-1.5,0.2-2.1c0.7-0.6,1.3-0.6,1.9,0   c2.2,2.2,4.4,4.3,6.6,6.5c0.6,0.6,1.2,1.1,1.9,1.6c0.3,0.2,0.7,0.4,1,0.3c0.8,0,1.6-0.4,2.2-0.9c0.3-0.3,0.4-0.5,0-0.9   c-1.9-1.9-3.8-3.9-5.6-5.9c-1.1-1.2-2.2-2.3-3.3-3.5c-0.4-0.4-0.6-0.9-0.4-1.5c0.4-1.2,1.7-1.6,2.6-0.7c2.1,2,4.1,4.1,6.2,6.2   c1,1,2.1,2,3.1,3c0.3,0.3,0.8,0.6,1.2,0.6c1.1,0.1,2.5-1.3,1.9-2.7c-0.4-0.9-1-1.7-1.6-2.4c-2.2-2.4-4.8-4.5-7.3-6.6   c-3-2.5-6-4.9-8.9-7.4c-0.7-0.6-1.1-0.7-1.9-0.4c-1.7,0.6-3.1,1.5-4.4,2.7c-2.3,2.1-5.1,2.3-7.9,1.4c-1.7-0.6-2.7-1.8-2.8-3.6   c-0.1-1.1,0.1-2.1,0.5-3c0.7-1.9,1.9-3.6,3.1-5.2c0.2-0.3,0.5-0.6,0.8-1c-0.1,0-0.2-0.1-0.3-0.1c-3.1,0-6.2,0-9.3,0   c-0.3,0-0.4,0.1-0.4,0.4c-0.1,0.7-0.2,1.3-0.4,2c-1.3,4.8-2.5,9.5-3.8,14.3c-0.1,0.3-0.1,0.5,0.1,0.8c3.2,3.5,6.7,6.8,10.4,9.7   c3.3,2.6,6.7,5.1,10,7.6c1.2,0.9,2.6,1.3,4.1,1.5C50.9,94.4,51.2,94.4,51.5,94.4z M72.8,80.5c0.8-0.5,1.6-1.1,2.4-1.6   c0.5-0.3,0.5-0.6,0.4-1.1c-2-5.3-3.9-10.7-5.9-16c-0.1-0.2-0.3-0.4-0.6-0.5c-2.4-0.9-4.8-1.8-7.1-2.8c-2.5-1-4.9-2-7.4-3   c-2.4-0.9-4.8-0.6-7,0.9c-1.5,1.1-2.9,2.3-4.3,3.6c-1.8,1.7-3.2,3.7-3.9,6.1c-0.5,1.5,0,2.1,1.5,2.2c2.4,0.3,4-1.1,5.3-2.8   c0.3-0.4,0.6-0.5,1-0.7c1.5-0.5,2.9-0.9,4.4-1.5c1-0.4,1.7-0.2,2.4,0.5c1.2,1.1,2.4,2.2,3.7,3.2C62.7,71.5,68.3,75.4,72.8,80.5z    M87.1,81.1c0-0.2,0-0.3,0-0.5c0-8.4,0-16.8,0-25.2c0-0.4-0.1-0.6-0.5-0.5c-1.7,0.1-3.4,0.2-5.2,0.4c-3.2,0.3-6.4,0.9-9.5,1.9   c-0.4,0.1-0.5,0.3-0.4,0.7c0.4,0.9,0.8,1.9,1.2,2.8c2.6,6.6,5,13.3,7.2,20c0.1,0.3,0.3,0.5,0.6,0.5c2,0,4,0,6,0   C86.7,81.2,86.9,81.2,87.1,81.1z M14.6,77.9c0.1,0,0.1,0.1,0.2,0.1c2.2,0,4.4,0,6.6,0c0.3,0,0.4-0.2,0.4-0.4   c1.8-5.6,3.3-11.2,4.7-16.9c0.4-1.9,0.8-3.9,1.2-5.8c0.1-0.5,0.1-0.8-0.5-0.9c-0.6-0.1-1.1-0.4-1.7-0.5c-2.8-0.5-5.6-0.9-8.4-1.4   c-0.8-0.1-1.6-0.2-2.4-0.3C14.6,60.5,14.6,69.2,14.6,77.9z" fill="#000000"/>
</g>
<g>
	<path class="st0" d="M49.9,47.8C37.1,47.7,27,37.5,27.1,24.9C27.1,12.3,37.6,2.1,50.2,2.2c12.6,0.2,22.6,10.5,22.6,23.1   C72.6,37.7,62.3,47.9,49.9,47.8z M49.9,6.7c-10.2,0-18.4,8.2-18.4,18.4c0,10.1,8.2,18.4,18.3,18.4c10.2,0,18.5-8.2,18.5-18.3   C68.3,14.9,60.1,6.7,49.9,6.7z" fill="#000000"/>
	<path class="st0" d="M46.4,27.9c0.5-0.4,0.8-0.8,1.1-1.1c3.3-3.3,6.5-6.5,9.8-9.8c1.2-1.2,2.5-1.3,3.4-0.4c1,0.9,0.9,2.3-0.3,3.5   c-4,4.1-8.1,8.1-12.2,12.1c-1.3,1.3-2.4,1.3-3.7,0c-1.8-1.8-3.6-3.6-5.4-5.4c-1.1-1.1-1.2-2.5-0.2-3.4c1-0.9,2.2-0.8,3.4,0.3   C43.7,25.1,45,26.5,46.4,27.9z" fill="#000000"/>
</g>
</svg>