<svg xmlns="http://www.w3.org/2000/svg" width="101" height="101" viewBox="0 0 101 101" fill="none">
<path d="M93.2383 73.1656C93.0425 72.4712 92.5848 71.8799 91.9616 71.5164C91.3383 71.1528 90.5983 71.0454 89.8975 71.2168L82.9651 73.0821C86.7585 67.4903 89.0587 61.0211 89.6469 54.2896C90.2155 47.9918 89.2947 41.6484 86.9587 35.7722C84.6227 29.896 80.9372 24.6518 76.1998 20.4632C75.6522 20.0102 74.9521 19.7839 74.2429 19.8305C73.5338 19.877 72.8693 20.193 72.3856 20.7137C71.899 21.2678 71.652 21.9924 71.699 22.7283C71.746 23.4643 72.0831 24.1516 72.6362 24.6393C76.7183 28.2425 79.8941 32.7568 81.9063 37.8163C83.9185 42.8757 84.7104 48.3381 84.218 53.7607C83.7411 59.4722 81.8255 64.97 78.6498 69.7412L77.9538 62.7532C78.0063 62.342 77.9663 61.9242 77.8366 61.5304C77.707 61.1365 77.4911 60.7766 77.2046 60.477C76.9182 60.1773 76.5684 59.9453 76.1808 59.7981C75.7932 59.6509 75.3777 59.5921 74.9645 59.626C74.5512 59.6599 74.1508 59.7856 73.7924 59.9941C73.4341 60.2025 73.1267 60.4883 72.893 60.8307C72.6592 61.1731 72.5048 61.5634 72.4411 61.9731C72.3774 62.3827 72.406 62.8015 72.5248 63.1987L73.9169 81.1281L91.3173 76.5065C92.0066 76.3049 92.5913 75.8448 92.9493 75.2222C93.3073 74.5996 93.4109 73.8628 93.2383 73.1656Z" fill="#e0272d"/>
<path d="M11.9979 47.5523C12.368 47.7902 12.7865 47.9424 13.2229 47.9978C13.9495 48.0931 14.6844 47.8981 15.2681 47.4551C15.8519 47.012 16.2374 46.3567 16.3411 45.6313C17.4915 37.1375 21.8081 29.3918 28.4265 23.9453C35.0449 18.4988 43.4765 15.7536 52.0329 16.2593L45.7966 20.519C45.3553 20.8514 45.0229 21.3076 44.8417 21.8295C44.6605 22.3514 44.6387 22.9154 44.779 23.4497C44.9193 23.984 45.2154 24.4646 45.6296 24.8301C46.0438 25.1956 46.5574 25.4297 47.1051 25.5025C47.7323 25.5598 48.3604 25.4028 48.8869 25.057L63.726 14.8673L51.0306 2.11627C50.8047 1.7701 50.5045 1.47858 50.1519 1.26288C49.7993 1.04717 49.4031 0.912698 48.992 0.86921C48.5809 0.825723 48.1654 0.874316 47.7754 1.01146C47.3855 1.14861 47.0309 1.37087 46.7376 1.6621C46.4443 1.95334 46.2194 2.30624 46.0795 2.69518C45.9395 3.08413 45.8879 3.49936 45.9285 3.91073C45.969 4.3221 46.1006 4.71929 46.3137 5.07345C46.5269 5.42762 46.8162 5.72988 47.1608 5.95828L51.8937 10.6912C42.0125 10.2187 32.3133 13.4679 24.7108 19.7974C17.1082 26.1268 12.1549 35.0765 10.8286 44.8796C10.7572 45.3897 10.8287 45.9095 11.0352 46.3814C11.2416 46.8532 11.5749 47.2586 11.9979 47.5523Z" fill="#e0272d"/>
<path d="M60.4977 83.3273C56.1502 84.716 51.5642 85.1993 47.0227 84.7472C41.4918 84.2051 36.1759 82.3249 31.534 79.2691C26.8921 76.2133 23.0636 72.0737 20.3792 67.2076L27.3115 69.7967C27.9505 69.9076 28.6082 69.7918 29.171 69.4695C29.7338 69.1472 30.1664 68.6385 30.3941 68.0312C30.6218 67.4239 30.6304 66.7562 30.4183 66.1433C30.2063 65.5304 29.7869 65.0107 29.2325 64.6741L16.4536 59.9411L12.3611 58.4656L9.27074 76.1444C9.16361 76.8509 9.33219 77.5715 9.74159 78.1571C10.151 78.7427 10.7699 79.1485 11.4702 79.2904H11.9434C12.5987 79.3023 13.2372 79.0827 13.7464 78.6702C14.2557 78.2577 14.6031 77.6788 14.7275 77.0353L15.8968 70.3536C19.0457 75.8696 23.4686 80.5522 28.7962 84.0103C34.1238 87.4684 40.2014 89.6016 46.5216 90.2318C51.8057 90.7555 57.1409 90.1869 62.1959 88.5614C62.8396 88.2949 63.3599 87.7967 63.6542 87.1653C63.9485 86.5339 63.9954 85.8151 63.7856 85.1508C63.5759 84.4864 63.1247 83.9249 62.5211 83.577C61.9175 83.2292 61.2055 83.1202 60.5255 83.2717L60.4977 83.3273Z" fill="#e0272d"/>
<path d="M61.249 36.1929H38.9765C38.2381 36.1929 37.5299 36.4862 37.0078 37.0083C36.4857 37.5304 36.1924 38.2386 36.1924 38.9769V61.2495C36.1924 61.9879 36.4857 62.696 37.0078 63.2181C37.5299 63.7403 38.2381 64.0336 38.9765 64.0336H61.249C61.9874 64.0336 62.6955 63.7403 63.2177 63.2181C63.7398 62.696 64.0331 61.9879 64.0331 61.2495V38.9769C64.0331 38.2386 63.7398 37.5304 63.2177 37.0083C62.6955 36.4862 61.9874 36.1929 61.249 36.1929ZM58.465 58.4654H41.7605V41.761H58.465V58.4654Z" fill="#e0272d"/>
</svg>