<?xml version="1.0" encoding="utf-8"?>
<!-- Generator: Adobe Illustrator 25.0.0, SVG Export Plug-In . SVG Version: 6.00 Build 0)  -->
<svg version="1.1" id="Layer_1" xmlns="http://www.w3.org/2000/svg" xmlns:xlink="http://www.w3.org/1999/xlink" x="0px" y="0px"
	 viewBox="0 0 752 752" style="enable-background:new 0 0 752 752;" xml:space="preserve">
<style type="text/css">
	.st0{fill:none;stroke:url(#SVGID_1_);stroke-width:23.2211;stroke-linecap:round;stroke-linejoin:round;stroke-miterlimit:10;}
</style>
<g>
	<g>
		
			<linearGradient id="SVGID_1_" gradientUnits="userSpaceOnUse" x1="31.2895" y1="376" x2="720.7106" y2="376" gradientTransform="matrix(1 0 0 -1 0 752)">
			<stop  offset="6.926126e-08" style="stop-color:#2A3473"/>
			<stop  offset="1" style="stop-color:#0C85C6"/>
		</linearGradient>
		<path class="st0" d="M46.2,663.4c1.2,16,13.9,28.9,30,30v17.1H42.9v4.7h666.2v-4.7H544.4v-82.6c37.5-7,71.8-26.8,96.7-56
			c25.6-30.1,39.7-68.5,39.7-108.1c0-92-74.8-166.9-166.9-166.9c-48.1,0-91.5,20.4-122,53.1L104.1,89.2c4.3-5.5,6.9-12.4,6.9-20
			c0-17.9-14.6-32.4-32.4-32.4c-17.1,0-31.1,13.3-32.4,30.1v4.6c1.2,16,14,28.9,30,30v33.9c-16,1.2-28.8,14-30,30v4.7
			c1.2,16,13.9,28.8,30,30v34c-16,1.2-28.8,13.9-30,30v4.7c1.2,16,14,28.8,30,30v34c-16,1.2-28.9,13.9-30,30v4.7
			c1.2,16,13.9,28.9,30,30v33.9c-16,1.2-28.8,14-30,30v4.7c1.2,16,13.9,28.8,30,30v34c-16,1.1-28.8,13.9-30,30v4.7
			c1.2,16,13.9,28.9,30,30v33.9c-16,1.2-28.8,14-30,30C46.2,658.7,46.2,663.4,46.2,663.4z M76.2,294.1C62.8,293,52.1,282.3,51,268.9
			h25.2V294.1z M76.2,264.1H50.9c1.2-13.4,11.8-24.1,25.2-25.2L76.2,264.1L76.2,264.1z M76.2,195.5c-13.4-1.2-24.1-11.8-25.2-25.2
			h25.2V195.5z M76.2,165.5H50.9c1.2-13.4,11.8-24.1,25.2-25.3L76.2,165.5L76.2,165.5z M76.2,96.8C62.8,95.7,52.1,85,50.9,71.5h25.2
			L76.2,96.8L76.2,96.8z M76.2,66.8H50.9c1.2-13.4,11.8-24.1,25.2-25.2L76.2,66.8L76.2,66.8z M76.2,688.7
			c-13.4-1.2-24.1-11.8-25.2-25.3h25.2V688.7z M76.2,658.6H50.9c1.2-13.4,11.8-24.1,25.2-25.2L76.2,658.6L76.2,658.6z M76.2,590
			c-13.4-1.1-24.1-11.8-25.2-25.2h25.2V590z M76.2,560H50.9c1.2-13.4,11.8-24.1,25.2-25.2L76.2,560L76.2,560z M76.2,491.4
			c-13.4-1.2-24.1-11.8-25.2-25.2h25.2V491.4z M76.2,461.4H50.9c1.2-13.5,11.8-24.1,25.2-25.3L76.2,461.4L76.2,461.4z M76.2,392.8
			C62.8,391.6,52.1,381,51,367.5h25.2V392.8z M76.2,362.7H50.9c1.2-13.4,11.8-24.1,25.2-25.2L76.2,362.7L76.2,362.7z M495.5,461.4
			v79.7c-35.6-8.4-61.2-40.6-61.2-77.5c0-44,35.8-79.7,79.6-79.7c44,0,79.7,35.8,79.7,79.7c0,32.2-19.7,61.4-49.2,73.6v-75.9h-48.9
			V461.4z M495.5,545.9v12.3c-45.3-8.7-77.9-48.1-77.9-94.5c0-53.1,43.2-96.3,96.3-96.3s96.3,43.2,96.3,96.3
			c0,41.3-26.9,78.4-65.8,91.3v-12.8c32.3-12.5,54-43.9,54-78.7c0-46.5-37.9-84.4-84.4-84.4s-84.4,37.9-84.4,84.4
			C429.5,503.1,457.2,537.4,495.5,545.9z M80.9,41.6c14.2,1.2,25.4,13.2,25.4,27.6c0,6.3-2.1,12.2-5.7,16.8L80.9,68.1V41.6z
			 M80.9,74.6l16.6,14.9c-4.4,4.1-10.1,6.8-16.6,7.4V74.6z M80.9,101.6c7.7-0.5,14.8-3.8,20-8.9l287.8,260.8
			c-4,4.6-7.9,9.4-11.5,14.6l-270.6-184c2.8-4.8,4.3-10.3,4.3-16.3c0-17.1-13.2-31.1-30.1-32.4v-33.8H80.9z M104.7,651.8
			c1,2.9,1.5,6,1.5,9.2c0,14.5-11.1,26.4-25.3,27.6v-26.1L104.7,651.8z M81,657.4v-24c9.4,0.8,17.4,6.3,21.8,14.1L81,657.4z
			 M81,628.7v-33.9c16.7-1.2,30-15.2,30-32.4c0-1.7-0.1-3.3-0.3-4.9l241-54.6c2.2,9.5,5.3,18.7,9.2,27.6L107.1,645.6
			C102,636.1,92.3,629.5,81,628.7z M105,373.6c-3.3,10.4-12.7,18.3-24,19.2v-24.7L105,373.6z M81,363.3v-25.8
			c14.2,1.2,25.3,13.2,25.3,27.6c0,1.3-0.1,2.6-0.2,3.8L81,363.3z M109.6,374.6l241,54.6c-2.2,10.4-3.4,21.1-3.6,32.2H110.9
			c-1.2-16-14-28.9-30-30v-33.9C94.5,396.5,105.8,387.2,109.6,374.6z M106.2,461.4H81v-25.3C94.4,437.3,105,447.9,106.2,461.4z
			 M106.2,466.1c-1.2,13.4-11.8,24.1-25.2,25.2v-25.2H106.2z M110.9,466.1h236.2c0.2,10.9,1.3,21.7,3.6,32.2l-241,54.6
			c-4-12.5-15.2-21.9-28.7-22.9v-33.9C96.9,494.9,109.8,482.2,110.9,466.1z M105,554l-24,5.4v-24.6C92.3,535.7,101.6,543.5,105,554z
			 M106.1,558.6c0.2,1.2,0.2,2.5,0.2,3.8c0,14.5-11.1,26.4-25.3,27.6v-25.7L106.1,558.6z M110.7,370c0.2-1.6,0.3-3.3,0.3-4.9
			c0-17.1-13.2-31.1-30-32.4v-33.9c11.2-0.9,21-7.4,26.1-16.9l254,115c-3.9,8.8-7,18-9.3,27.6L110.7,370z M102.7,280.1
			c-4.3,7.8-12.4,13.2-21.8,14v-23.9L102.7,280.1z M81,265v-26.1c14.2,1.2,25.3,13.1,25.3,27.6c0,3.3-0.5,6.3-1.5,9.2L81,265z
			 M109.1,277.7c1.2-3.5,1.9-7.2,1.9-11.1c0-17.1-13.2-31.2-30-32.4v-34c9.3-0.6,17.6-5.3,23.1-12.2l270.6,184
			c-4.3,6.7-8.3,13.5-11.7,20.8L109.1,277.7z M102.7,181.4L81,166.6v-26.3c14.2,1.2,25.3,13.1,25.3,27.6
			C106.3,172.8,105,177.4,102.7,181.4z M80.9,172.3l19.2,13c-4.6,5.7-11.5,9.5-19.2,10.1C80.9,195.4,80.9,172.3,80.9,172.3z
			 M495.5,710.5H81v-17.1c16.7-1.2,30-15.2,30-32.4c0-3.9-0.7-7.7-1.9-11.2l253.8-115c7,15,16.4,28.9,27.8,41.4
			c27.4,30.1,64.6,49,104.8,53.4V710.5z M495.5,624.9c-82.1-9.3-143.7-78.1-143.7-161.2c-0.1-89.4,72.7-162.2,162.1-162.2
			s162.2,72.8,162.2,162.2c0,78.3-55.2,144.8-131.7,159.3v-63c19.7-6.2,37.5-18.7,50.1-35.3c13.4-17.6,20.4-38.8,20.4-61
			c0-55.7-45.3-100.9-101-100.9S413,408.1,413,463.7c0,24.1,8.6,47.4,24.3,65.7c15,17.6,35.7,29.4,58.3,33.6v61.9H495.5z
			 M539.7,710.5h-39.5V466.1h39.5V710.5z"/>
	</g>
</g>
</svg>
