<?xml version="1.0" encoding="utf-8"?>
<!-- Generator: Adobe Illustrator 25.0.0, SVG Export Plug-In . SVG Version: 6.00 Build 0)  -->
<svg version="1.1" id="Layer_1" xmlns="http://www.w3.org/2000/svg" xmlns:xlink="http://www.w3.org/1999/xlink" x="0px" y="0px"
	 viewBox="0 0 752 752" style="enable-background:new 0 0 752 752;" xml:space="preserve">
<style type="text/css">
	.st0{fill-rule:evenodd;clip-rule:evenodd;fill:url(#SVGID_1_);}
	.st1{fill-rule:evenodd;clip-rule:evenodd;fill:url(#SVGID_2_);}
</style>
<g>
	
		<linearGradient id="SVGID_1_" gradientUnits="userSpaceOnUse" x1="74.972" y1="376.0064" x2="676.7" y2="376.0064" gradientTransform="matrix(1 0 0 -1 0 752)">
		<stop  offset="6.926126e-08" style="stop-color:#2A3473"/>
		<stop  offset="1" style="stop-color:#0C85C6"/>
	</linearGradient>
	<path class="st0" d="M219.5,484l-113-113c0,0-1.4-1.5-2.6-2.8c-1.9-2.1-3.7-4.3-5.4-6.6c0,0-1.7-2.2-2.9-3.9
		c-2.5-3.6-4.9-7.4-7-11.2c0,0-0.8-1.5-1.5-2.7c0,0-0.6-1.2-1.2-2.3c-0.3-0.5-0.5-1.1-0.8-1.6c-0.4-0.8-0.8-1.6-1.1-2.4
		c0,0-0.4-1-0.7-1.7c-0.7-1.6-1.4-3.3-2-5c0,0-0.5-1.5-1-2.7c-1.7-4.8-3-9.8-3.9-14.8c0,0-0.3-1.6-0.5-3c-0.4-2.7-0.7-5.5-0.8-8.3
		c0,0-0.2-3.4-0.1-5.9c0,0,0-1.2,0.1-2.3c0,0,0.1-1.1,0.1-1.8c0-0.2,0-0.4,0-0.6c0.2-2.3,0.4-4.6,0.8-6.9v-0.2
		c0.1-0.9,0.3-1.9,0.5-2.8c0,0,0.4-1.9,0.8-3.7c0,0,0.2-1,0.4-1.7c0.2-0.7,0.4-1.5,0.6-2.2l0.1-0.2c0.2-0.8,0.5-1.7,0.7-2.5
		c0,0,0.3-0.8,0.5-1.5c0.4-1.1,0.8-2.2,1.2-3.3c0,0,0.9-2.2,1.5-3.7l0.4-0.8c0.3-0.6,0.7-1.4,0.7-1.4c0.2-0.4,0.4-0.8,0.4-0.8
		c0.3-0.6,0.4-0.8,0.5-1.1c0.5-1,1-1.9,1.5-2.9l0.4-0.8c0.2-0.3,0.3-0.6,0.3-0.6c1.2-2.1,2.4-4.2,3.7-6.2l0.5-0.8
		c0.2-0.3,0.4-0.6,0.4-0.6c0.7-1.1,1.5-2.2,2.3-3.3l0.3-0.4c0.7-1,1.5-2,2.3-3l1-1.2c2.5-3.1,5.2-6.2,8-9l0.4-0.4c0,0,1-1,2-2
		l0.4-0.4c0,0,1.6-1.6,3-2.8c2-1.9,4.1-3.7,6.2-5.4l1.2-1c2.2-1.7,4.4-3.3,6.7-4.9c0,0,1.2-0.8,2.3-1.5c1.9-1.2,3.8-2.3,5.8-3.4
		l0.8-0.4c1.3-0.7,2.6-1.4,3.9-2l0.8-0.4c0.4-0.2,0.8-0.4,0.8-0.4c0.9-0.4,0.9-0.4,1.3-0.6l0.2-0.1c0.2-0.1,0.2-0.1,0.4-0.2
		c0,0,2-0.9,3.3-1.3l1.6-0.6c1-0.4,2.1-0.7,3.1-1.1l0.2-0.1c0.8-0.2,1.5-0.5,2.3-0.7l0.8-0.2c0.8-0.2,1.7-0.4,2.5-0.6
		c0,0,0.9-0.2,1.6-0.4c2.1-0.5,4.1-0.9,6.2-1.2c0,0,1.4-0.2,2.2-0.3c1-0.1,2.1-0.2,3.2-0.3c0,0,1.8-0.1,3.5-0.2h1.2
		c0.5,0,0.6,0,0.6,0c1.9,0,3.8,0,5.7,0h0.2c4.1,0.2,8.1,0.6,12.2,1.4c6,1.1,11.9,2.7,17.6,4.9l0.3,0.1c11,4.2,21.4,10,30.7,17.1
		l-21.5,21.5c-4.4-3-9-5.6-13.8-7.9c-5.1-2.4-10.4-4.3-15.9-5.5c-7.3-1.6-14.9-2-22.3-0.8c-1.5,0.2-3,0.6-4.5,0.9
		c0,0-2.4,0.6-3.7,1.1c-0.6,0.2-1.2,0.4-1.8,0.6l-0.2,0.1c-1.2,0.4-2.3,0.9-3.4,1.4c0,0-0.7,0.3-1.2,0.5c-0.2,0.1-0.5,0.2-0.7,0.3
		c-3.2,1.5-6.3,3.3-9.3,5.3c-0.7,0.5-1.7,1.1-1.7,1.1c-7.9,5.6-14.9,12.4-20.5,19.7c-0.5,0.7-1.1,1.4-1.6,2.1c0,0-0.7,0.9-1.1,1.5
		c-2.5,3.6-4.7,7.4-6.5,11.3c-1,2.2-1.9,4.4-2.6,6.6c0,0.1,0,0.1-0.1,0.2c-2,6.3-2.9,12.9-2.6,19.7c0.8,16.3,7.9,31.1,17.3,43.5
		c1.7,2.2,3.4,4.4,5.3,6.3l113,113L219.5,484L219.5,484z M441.8,706.2L268,532.4l21.2-21.2L463.1,685l1.4,1.5
		c0.4,0.6,0.8,1.1,1.1,1.7c2,3.6,2.5,8,1.2,11.9c-1.7,5.2-6.3,9.3-11.8,10.3c-4,0.7-8.4-0.4-11.6-2.8
		C442.8,707.2,442.4,706.7,441.8,706.2L441.8,706.2z M462.7,484L268,289.3l21.2-21.2L484,462.7L462.7,484z M533.4,510.3
		c7.3,5.1,15.4,9.2,23.8,11.9c3.7,1.1,7.4,2,11.1,2.5c2.7,0.4,5.4,0.6,8.2,0.5c4.6,0,9.3-0.6,13.8-1.8c0,0,1.2-0.3,2.3-0.6
		s2.2-0.7,3.3-1.1l0.2-0.1c5.4-2,10.4-4.7,15.2-8.1l0.1-0.1c0.8-0.6,1.6-1.1,2.4-1.7l0.1-0.1c1.2-0.9,2.4-1.8,3.5-2.8l0.1-0.1
		c3.1-2.6,6.1-5.4,8.8-8.3c1.2-1.2,2.3-2.5,3.4-3.7c0,0,1-1.1,1.5-1.8c2.5-3.1,4.8-6.3,6.8-9.7c2-3.4,3.7-6.9,5.1-10.5
		c0,0,0.3-0.9,0.6-1.7c0,0,0.6-1.9,1-3.2c0,0,0.6-2.1,0.9-3.4c0.9-4.2,1.3-8.4,1.2-12.7c-0.1-7.1-1.6-13.9-3.7-19.9
		c-2.9-8.5-7.3-16.4-12.6-23.7c-1.9-2.7-4-5.2-6.3-7.7l-113-113.1l21.2-21.2l113,113c0,0,0.1,0.1,0.2,0.2l0.3,0.3
		c6,6.3,11.1,13.3,15.6,20.9s8.2,15.6,10.8,24c0.6,2,1.2,4.1,1.7,6.2v0.2c0.9,3.8,1.6,7.7,2.1,11.5c0,0,0.2,2.2,0.4,3.7
		c0,0.4,0,0.7,0.1,1.1c0.1,0.8,0.1,1.6,0.1,2.4c0,0,0,0.4,0,0.7c0,0.2,0,0.2,0,0.4c0,1,0,1.1,0,1.5c0,1.8,0,3.6-0.1,5.4l-0.1,1.5
		c-0.1,1-0.2,2-0.3,3l-0.2,1.8c0,0.3-0.1,0.6-0.1,0.6c-0.1,0.9-0.3,1.9-0.4,2.8c0,0-0.3,1.9-0.6,3.2l-0.2,1
		c-0.2,0.9-0.4,1.8-0.6,2.7l-0.3,1.2c-0.2,0.7-0.4,1.4-0.6,2.1c0,0-0.3,1.1-0.6,1.9l-0.3,1c-0.3,0.8-0.6,1.6-0.9,2.5
		c-0.2,0.4-0.2,0.6-0.2,0.6c-1.1,3-2.4,5.9-3.8,8.7l-0.1,0.2c-0.5,1-1,1.9-1.5,2.9l-0.7,1.2c-0.4,0.8-1.1,1.8-1.1,1.8
		c-1.1,1.8-2.2,3.6-3.4,5.4l-0.8,1.2c-3.3,4.8-6.9,9.2-11.2,13.8c-1.9,2-3.9,4-5.9,5.9c0,0-0.8,0.7-1.4,1.3
		c-1.7,1.6-3.5,3.1-5.2,4.6c0,0-2.6,2.1-4.9,3.8c-0.7,0.5-1.5,1.1-2.3,1.6l-0.4,0.3c-0.5,0.3-1,0.7-1,0.7c-2.3,1.6-4.7,3.1-7.2,4.5
		c-0.2,0.1-0.1,0.1-0.6,0.3c-1.1,0.6-2.2,1.2-3.3,1.8l-0.8,0.4c-2.3,1.1-4.7,2.2-7,3.2l-1.8,0.7c-0.8,0.3-1.5,0.6-2.3,0.8l-0.8,0.3
		c-1.4,0.4-2.7,0.9-4.1,1.3l-1.2,0.3c-0.3,0.1-0.6,0.2-0.6,0.2c-0.9,0.2-1.8,0.4-2.6,0.6c0,0-1.4,0.3-2.6,0.5c0,0-1.7,0.3-3,0.5
		c-1.1,0.2-2.1,0.3-3.2,0.4l-1.2,0.1c0,0-2,0.2-3.4,0.3c-1.5,0.1-3,0.1-4.5,0.2H576c-1.3,0-2.7,0-4-0.1l-0.9-0.1
		c-1.8-0.1-3.7-0.3-5.5-0.5c0,0-1.9-0.2-3.4-0.5c-0.4-0.1-0.7-0.1-1.1-0.2c-14.5-2.5-28.3-8.5-40.3-16.1c-3-1.9-5.9-3.9-8.7-6
		L533.4,510.3L533.4,510.3z M484,219.5l-21.2,21.2L288.9,67c-1.2-1.4-1.6-1.7-2.5-3.3c-2.4-4.2-2.5-9.5-0.5-13.8
		c2.9-6.2,10.4-9.8,17.1-8.1c2,0.5,3.9,1.4,5.5,2.6c0.5,0.4,1,0.9,1.5,1.4L484,219.5L484,219.5z"/>
	
		<linearGradient id="SVGID_2_" gradientUnits="userSpaceOnUse" x1="41.292" y1="376.05" x2="710.575" y2="376.05" gradientTransform="matrix(1 0 0 -1 0 752)">
		<stop  offset="6.926126e-08" style="stop-color:#2A3473"/>
		<stop  offset="1" style="stop-color:#0C85C6"/>
	</linearGradient>
	<path class="st1" d="M361.7,653.3c-0.3,0.2-0.6,0.4-0.9,0.6l-1,0.7c-0.7,0.5-1.7,1.2-1.7,1.2c-2.5,1.8-5.2,3.5-7.9,5.1
		c0,0-3.3,1.9-5.5,3.1c-0.6,0.3-1.2,0.7-1.2,0.7c-0.5,0.2-1,0.5-1,0.5c-1.3,0.7-2.6,1.3-4,1.9l-0.3,0.1c-3.6,1.7-7.3,3.1-11.1,4.4
		c0,0-1.3,0.4-2.1,0.7c-5,1.5-10,2.7-15.1,3.4c-1.5,0.2-3,0.4-4.5,0.5h-0.2c-1.1,0.1-2.2,0.2-3.4,0.2h-0.2c-2,0.1-3.9,0.1-5.9,0.1
		c0,0-1.2,0-2.1-0.1c0,0-2.7-0.1-4.7-0.3c0,0-3.4-0.4-6-0.8c0,0-1.1-0.2-1.8-0.3c-13.1-2.5-25.4-8-36.6-15.9
		c-8.4-5.9-16-12.9-22.7-20.6c-4.8-5.5-9.1-11.3-12.7-17.5l-0.1-0.2c-4.1-7-7.3-14.5-9.4-22.3c0,0-0.3-1.1-0.5-2
		c-1.7-6.9-2.5-13.9-2.5-21.6c0-0.7,0-1.4,0.1-2.1c0,0,0.1-1.3,0.1-2.3v-0.4c0.1-0.8,0.1-1.6,0.2-2.4v-0.4c0.1-0.6,0.2-1.4,0.2-1.4
		c0.1-0.8,0.2-1.6,0.3-2.4c0,0,0.3-2,0.5-3.4c0.1-0.5,0.2-1,0.2-1c0.1-0.7,0.3-1.7,0.3-1.7c0.1-0.6,0.3-1.3,0.3-1.3
		c0.1-0.4,0.2-0.9,0.2-0.9c0.3-1.4,0.7-2.8,1.1-4.1c0,0,0.3-0.9,0.5-1.6c0.1-0.3,0.2-0.7,0.3-1c1.4-4.5,3-8.8,4.9-12.9
		c1-2.2,2-4.3,3.1-6.3l0.1-0.2c1.5-2.8,3.1-5.6,4.8-8.3l0.9-1.5c0.4-0.5,0.8-1.2,0.8-1.2c1.4-2,2.8-4,4.3-6l0.1-0.2
		c1.2-1.6,2.5-3.2,3.8-4.7l0.4-0.4c0,0,0.8-0.9,1.5-1.7l0.3-0.3c0.1-0.1,0.1-0.1,0.3-0.3c0.6-0.7,1.5-1.6,1.5-1.6l113.4-113.4
		l21.2,21.2l-113,113c0.2-0.2-1,1.1-1.8,1.9c-2.5,2.9-4.8,6-7,9.2c-2,2.9-3.8,6-5.4,9.1c-0.7,1.3-1.3,2.6-1.9,4c0,0-0.6,1.2-1,2.3
		c-0.3,0.7-0.6,1.4-0.9,2.1c0,0-0.6,1.5-1,2.6c-0.6,1.7-1.1,3.4-1.6,5.1c0,0.1-0.1,0.2-0.1,0.3c-0.7,2.5-1.2,5.1-1.5,7.7
		c-1.2,8.8-0.4,17.7,2.4,26c0.1,0.2,0.1,0.4,0.2,0.6c4.3,12.5,12.8,23.4,22.4,32.3c7.3,6.8,15.6,12.6,25.1,16.1
		c3.8,1.4,7.7,2.4,11.6,3c3.2,0.5,6.4,0.7,9.5,0.6c0,0,3-0.1,4.6-0.3c0.8-0.1,1.6-0.2,2.4-0.3c0,0,0.8-0.1,1.3-0.2
		c2.4-0.4,4.8-0.9,7.1-1.6c1.4-0.4,2.7-0.8,4.1-1.3c0,0,1.5-0.5,2.6-0.9c1.9-0.7,3.8-1.5,5.7-2.4c0,0,2-0.9,3.5-1.7
		c0,0,1.1-0.6,1.9-1c2.9-1.6,5.7-3.4,8.5-5.3L361.7,653.3L361.7,653.3z M119.2,410.9L67,463.1c-1.4,1.2-1.7,1.6-3.3,2.5
		c-4.8,2.7-11,2.5-15.6-0.5c-3.4-2.3-5.9-6-6.6-10c-0.7-4,0.4-8.4,2.8-11.6c0.4-0.5,0.9-1,1.4-1.5L98,389.6L119.2,410.9L119.2,410.9
		z M410.9,605.6l-21.2-21.2l194.7-194.7l21.2,21.2L410.9,605.6z M167.7,362.4l-21.2-21.2l194.7-194.7l21.2,21.2L167.7,362.4z
		 M411.8,120.2l-21.5-21.5l0.6-0.4c0.5-0.4,1.1-0.8,1.6-1.2c0,0,1.5-1.1,2.9-2l1-0.7c0.7-0.4,1.6-1,1.6-1c1.1-0.7,2.1-1.4,3.2-2
		l1.1-0.7c0,0,1.7-1,2.8-1.6c2.9-1.6,5.9-3.2,9-4.6c1.6-0.7,3.2-1.4,4.8-2.1l0.3-0.1c2-0.8,4-1.5,6.1-2.2c0,0,2.4-0.8,4.1-1.3
		l1.6-0.4c0.9-0.2,1.9-0.5,2.8-0.7c0,0,1.4-0.3,2.4-0.5c0.9-0.2,1.7-0.3,2.6-0.5c0,0,1-0.2,1.9-0.3c0,0,1.2-0.2,2.2-0.3
		c0.8-0.1,1.8-0.2,1.8-0.2c2-0.2,4-0.4,6.1-0.5h1c0.9,0,2.1,0,2.1,0c1.7,0,3.5,0,5.2,0.1c0,0,2.7,0.1,5.1,0.4
		c0.7,0.1,1.5,0.2,2.2,0.3c0,0,1,0.1,2,0.3c0,0,1.7,0.3,3.2,0.6c0,0,1,0.2,1.7,0.3c4.7,1,9.3,2.4,13.7,4.2
		c6.5,2.6,12.7,5.9,18.5,9.9c0,0,0.8,0.6,1.4,1c6.2,4.3,12.1,9.4,17.4,14.7c9.8,9.9,18.2,21.2,23.8,34.3c0.6,1.4,1.1,2.7,1.6,4.1
		l0.2,0.4c0.4,1,0.7,2,1.1,3.1c0,0,0.8,2.5,1.3,4.3c1.2,4.5,2.1,9.1,2.6,13.7v0.2c0.1,1.1,0.2,2.1,0.3,3.2l0.1,1.5
		c0.1,2.4,0.1,4.9,0,7.3c0,0,0,1.1-0.1,1.9c0,0.7-0.1,1.5-0.2,2.2c0,0-0.1,1.2-0.2,2.2c-0.1,1-0.2,1.9-0.4,2.9c0,0-0.1,0.8-0.2,1.4
		v0.1c-0.2,1.4-0.5,2.7-0.7,4.1l-0.3,1.5c-0.2,0.7-0.3,1.5-0.5,2.2c0,0-0.5,1.9-1,3.6c-0.2,0.8-0.5,1.6-0.7,2.4c0,0-1.1,3.6-2,5.9
		c0,0-0.8,2.1-1.6,4.1l-0.5,1.1c-1.3,2.9-2.6,5.6-4.1,8.5l-0.1,0.2c-1,1.8-2,3.6-3.1,5.4l-0.1,0.2c-0.6,1-1.2,2-1.9,3l-0.5,0.8
		c-1,1.5-2,2.9-3,4.3l-0.7,1c-0.6,0.8-1.2,1.6-1.8,2.4c0,0-0.5,0.7-0.9,1.2c-0.8,1-1.6,2-2.4,3l-0.4,0.4l-0.9,1c0,0-0.9,1-1.5,1.7
		l-0.5,0.6c-0.6,0.6-0.9,0.9-0.9,0.9l-113,113l-21.2-21.2l113-113c-0.2,0.2,0.8-0.8,1.4-1.6c2.8-3.2,5.4-6.6,7.7-10.2
		c1.7-2.5,3.2-5.1,4.6-7.8l0.9-1.7c2.1-4.2,3.9-8.6,5.2-12.9c0.9-2.8,1.5-5.6,2-8.6c0.4-2.3,0.6-4.6,0.7-7c0-0.1,0-0.1,0-0.2
		c0.2-3.6,0-7.3-0.6-10.9c-1.5-10.1-6-19.6-11.9-27.7c-9.2-12.7-21.1-23.5-35.6-29.7c-8.8-3.7-18.3-5.3-27.9-4.3
		c-5.3,0.5-10.4,1.7-14.5,3.1c-1.3,0.4-2.6,0.9-4,1.4c0,0-2.2,0.9-4.2,1.8c0,0-1.1,0.5-1.8,0.9c-2.6,1.3-5.2,2.7-7.7,4.2
		c-0.2,0.1-0.3,0.2-0.5,0.3c-0.5,0.3-1.2,0.7-1.2,0.7c-0.7,0.4-1.4,0.9-2,1.3C413.2,119.2,412.6,119.6,411.8,120.2L411.8,120.2z
		 M654,362.4l-21.2-21.2L685,289c1.4-1.2,1.7-1.6,3.3-2.5c5.4-3,12.6-2.3,17.2,1.8c1,0.9,1.9,2,2.7,3.1c0.9,1.6,1.2,2,1.7,3.7
		c1.2,3.9,0.8,8.3-1.2,11.9c-0.9,1.6-1.3,1.9-2.5,3.3L654,362.4L654,362.4z"/>
</g>
</svg>
